<?xml version="1.0" standalone="no"?>
<svg xmlns="http://www.w3.org/2000/svg" width="300" height="300"><defs><clipPath id="clip-path-dot-color"><circle cx="23.5" cy="95.5" r="4.5" transform="rotate(0,23.5,95.5)"/><circle cx="23.5" cy="113.5" r="4.5" transform="rotate(0,23.5,113.5)"/><circle cx="23.5" cy="131.5" r="4.5" transform="rotate(0,23.5,131.5)"/><circle cx="23.5" cy="140.5" r="4.5" transform="rotate(0,23.5,140.5)"/><circle cx="23.5" cy="158.5" r="4.5" transform="rotate(0,23.5,158.5)"/><circle cx="23.5" cy="203.5" r="4.5" transform="rotate(0,23.5,203.5)"/><circle cx="32.5" cy="104.5" r="4.5" transform="rotate(0,32.5,104.5)"/><circle cx="32.5" cy="113.5" r="4.5" transform="rotate(0,32.5,113.5)"/><circle cx="32.5" cy="122.5" r="4.5" transform="rotate(0,32.5,122.5)"/><circle cx="32.5" cy="131.5" r="4.5" transform="rotate(0,32.5,131.5)"/><circle cx="32.5" cy="140.5" r="4.5" transform="rotate(0,32.5,140.5)"/><circle cx="32.5" cy="167.5" r="4.5" transform="rotate(0,32.5,167.5)"/><circle cx="32.5" cy="176.5" r="4.5" transform="rotate(0,32.5,176.5)"/><circle cx="41.5" cy="95.5" r="4.5" transform="rotate(0,41.5,95.5)"/><circle cx="41.5" cy="104.5" r="4.5" transform="rotate(0,41.5,104.5)"/><circle cx="41.5" cy="113.5" r="4.5" transform="rotate(0,41.5,113.5)"/><circle cx="41.5" cy="158.5" r="4.5" transform="rotate(0,41.5,158.5)"/><circle cx="41.5" cy="167.5" r="4.5" transform="rotate(0,41.5,167.5)"/><circle cx="50.5" cy="95.5" r="4.5" transform="rotate(0,50.5,95.5)"/><circle cx="50.5" cy="104.5" r="4.5" transform="rotate(0,50.5,104.5)"/><circle cx="50.5" cy="113.5" r="4.5" transform="rotate(0,50.5,113.5)"/><circle cx="50.5" cy="131.5" r="4.5" transform="rotate(0,50.5,131.5)"/><circle cx="50.5" cy="149.5" r="4.5" transform="rotate(0,50.5,149.5)"/><circle cx="50.5" cy="167.5" r="4.5" transform="rotate(0,50.5,167.5)"/><circle cx="50.5" cy="176.5" r="4.5" transform="rotate(0,50.5,176.5)"/><circle cx="50.5" cy="185.5" r="4.5" transform="rotate(0,50.5,185.5)"/><circle cx="50.5" cy="194.5" r="4.5" transform="rotate(0,50.5,194.5)"/><circle cx="50.5" cy="203.5" r="4.5" transform="rotate(0,50.5,203.5)"/><circle cx="59.5" cy="95.5" r="4.5" transform="rotate(0,59.5,95.5)"/><circle cx="59.5" cy="122.5" r="4.5" transform="rotate(0,59.5,122.5)"/><circle cx="59.5" cy="131.5" r="4.5" transform="rotate(0,59.5,131.5)"/><circle cx="59.5" cy="149.5" r="4.5" transform="rotate(0,59.5,149.5)"/><circle cx="59.5" cy="158.5" r="4.5" transform="rotate(0,59.5,158.5)"/><circle cx="59.5" cy="185.5" r="4.5" transform="rotate(0,59.5,185.5)"/><circle cx="59.5" cy="194.5" r="4.5" transform="rotate(0,59.5,194.5)"/><circle cx="59.5" cy="203.5" r="4.5" transform="rotate(0,59.5,203.5)"/><circle cx="68.5" cy="113.5" r="4.5" transform="rotate(0,68.5,113.5)"/><circle cx="68.5" cy="122.5" r="4.5" transform="rotate(0,68.5,122.5)"/><circle cx="68.5" cy="140.5" r="4.5" transform="rotate(0,68.5,140.5)"/><circle cx="68.5" cy="176.5" r="4.5" transform="rotate(0,68.5,176.5)"/><circle cx="68.5" cy="194.5" r="4.5" transform="rotate(0,68.5,194.5)"/><circle cx="68.5" cy="203.5" r="4.5" transform="rotate(0,68.5,203.5)"/><circle cx="77.5" cy="95.5" r="4.5" transform="rotate(0,77.5,95.5)"/><circle cx="77.5" cy="113.5" r="4.5" transform="rotate(0,77.5,113.5)"/><circle cx="77.5" cy="131.5" r="4.5" transform="rotate(0,77.5,131.5)"/><circle cx="77.5" cy="149.5" r="4.5" transform="rotate(0,77.5,149.5)"/><circle cx="77.5" cy="167.5" r="4.5" transform="rotate(0,77.5,167.5)"/><circle cx="77.5" cy="185.5" r="4.5" transform="rotate(0,77.5,185.5)"/><circle cx="77.5" cy="203.5" r="4.5" transform="rotate(0,77.5,203.5)"/><circle cx="86.5" cy="113.5" r="4.5" transform="rotate(0,86.5,113.5)"/><circle cx="86.5" cy="131.5" r="4.5" transform="rotate(0,86.5,131.5)"/><circle cx="86.5" cy="158.5" r="4.5" transform="rotate(0,86.5,158.5)"/><circle cx="86.5" cy="176.5" r="4.5" transform="rotate(0,86.5,176.5)"/><circle cx="86.5" cy="203.5" r="4.5" transform="rotate(0,86.5,203.5)"/><circle cx="95.5" cy="23.5" r="4.5" transform="rotate(0,95.5,23.5)"/><circle cx="95.5" cy="32.5" r="4.5" transform="rotate(0,95.5,32.5)"/><circle cx="95.5" cy="41.5" r="4.5" transform="rotate(0,95.5,41.5)"/><circle cx="95.5" cy="50.5" r="4.5" transform="rotate(0,95.5,50.5)"/><circle cx="95.5" cy="77.5" r="4.5" transform="rotate(0,95.5,77.5)"/><circle cx="95.5" cy="95.5" r="4.5" transform="rotate(0,95.5,95.5)"/><circle cx="95.5" cy="113.5" r="4.5" transform="rotate(0,95.5,113.5)"/><circle cx="95.5" cy="122.5" r="4.5" transform="rotate(0,95.5,122.5)"/><circle cx="95.5" cy="131.5" r="4.5" transform="rotate(0,95.5,131.5)"/><circle cx="95.5" cy="140.5" r="4.5" transform="rotate(0,95.5,140.5)"/><circle cx="95.5" cy="158.5" r="4.5" transform="rotate(0,95.5,158.5)"/><circle cx="95.5" cy="176.5" r="4.5" transform="rotate(0,95.5,176.5)"/><circle cx="95.5" cy="194.5" r="4.5" transform="rotate(0,95.5,194.5)"/><circle cx="95.5" cy="212.5" r="4.5" transform="rotate(0,95.5,212.5)"/><circle cx="95.5" cy="239.5" r="4.5" transform="rotate(0,95.5,239.5)"/><circle cx="95.5" cy="248.5" r="4.5" transform="rotate(0,95.5,248.5)"/><circle cx="95.5" cy="257.5" r="4.5" transform="rotate(0,95.5,257.5)"/><circle cx="95.5" cy="275.5" r="4.5" transform="rotate(0,95.5,275.5)"/><circle cx="104.5" cy="23.5" r="4.5" transform="rotate(0,104.5,23.5)"/><circle cx="104.5" cy="32.5" r="4.5" transform="rotate(0,104.5,32.5)"/><circle cx="104.5" cy="68.5" r="4.5" transform="rotate(0,104.5,68.5)"/><circle cx="104.5" cy="86.5" r="4.5" transform="rotate(0,104.5,86.5)"/><circle cx="104.5" cy="113.5" r="4.5" transform="rotate(0,104.5,113.5)"/><circle cx="104.5" cy="131.5" r="4.5" transform="rotate(0,104.5,131.5)"/><circle cx="104.5" cy="140.5" r="4.5" transform="rotate(0,104.5,140.5)"/><circle cx="104.5" cy="149.5" r="4.5" transform="rotate(0,104.5,149.5)"/><circle cx="104.5" cy="203.5" r="4.5" transform="rotate(0,104.5,203.5)"/><circle cx="104.5" cy="212.5" r="4.5" transform="rotate(0,104.5,212.5)"/><circle cx="104.5" cy="221.5" r="4.5" transform="rotate(0,104.5,221.5)"/><circle cx="104.5" cy="230.5" r="4.5" transform="rotate(0,104.5,230.5)"/><circle cx="104.5" cy="239.5" r="4.5" transform="rotate(0,104.5,239.5)"/><circle cx="104.5" cy="257.5" r="4.5" transform="rotate(0,104.5,257.5)"/><circle cx="104.5" cy="266.5" r="4.5" transform="rotate(0,104.5,266.5)"/><circle cx="113.5" cy="32.5" r="4.5" transform="rotate(0,113.5,32.5)"/><circle cx="113.5" cy="59.5" r="4.5" transform="rotate(0,113.5,59.5)"/><circle cx="113.5" cy="77.5" r="4.5" transform="rotate(0,113.5,77.5)"/><circle cx="113.5" cy="86.5" r="4.5" transform="rotate(0,113.5,86.5)"/><circle cx="113.5" cy="104.5" r="4.5" transform="rotate(0,113.5,104.5)"/><circle cx="113.5" cy="113.5" r="4.5" transform="rotate(0,113.5,113.5)"/><circle cx="113.5" cy="122.5" r="4.5" transform="rotate(0,113.5,122.5)"/><circle cx="113.5" cy="131.5" r="4.5" transform="rotate(0,113.5,131.5)"/><circle cx="113.5" cy="140.5" r="4.5" transform="rotate(0,113.5,140.5)"/><circle cx="113.5" cy="167.5" r="4.5" transform="rotate(0,113.5,167.5)"/><circle cx="113.5" cy="176.5" r="4.5" transform="rotate(0,113.5,176.5)"/><circle cx="113.5" cy="203.5" r="4.5" transform="rotate(0,113.5,203.5)"/><circle cx="113.5" cy="230.5" r="4.5" transform="rotate(0,113.5,230.5)"/><circle cx="113.5" cy="248.5" r="4.5" transform="rotate(0,113.5,248.5)"/><circle cx="113.5" cy="257.5" r="4.5" transform="rotate(0,113.5,257.5)"/><circle cx="113.5" cy="266.5" r="4.5" transform="rotate(0,113.5,266.5)"/><circle cx="122.5" cy="32.5" r="4.5" transform="rotate(0,122.5,32.5)"/><circle cx="122.5" cy="68.5" r="4.5" transform="rotate(0,122.5,68.5)"/><circle cx="122.5" cy="86.5" r="4.5" transform="rotate(0,122.5,86.5)"/><circle cx="122.5" cy="104.5" r="4.5" transform="rotate(0,122.5,104.5)"/><circle cx="122.5" cy="113.5" r="4.5" transform="rotate(0,122.5,113.5)"/><circle cx="122.5" cy="185.5" r="4.5" transform="rotate(0,122.5,185.5)"/><circle cx="122.5" cy="194.5" r="4.5" transform="rotate(0,122.5,194.5)"/><circle cx="122.5" cy="212.5" r="4.5" transform="rotate(0,122.5,212.5)"/><circle cx="122.5" cy="221.5" r="4.5" transform="rotate(0,122.5,221.5)"/><circle cx="122.5" cy="248.5" r="4.5" transform="rotate(0,122.5,248.5)"/><circle cx="131.5" cy="23.5" r="4.5" transform="rotate(0,131.5,23.5)"/><circle cx="131.5" cy="41.5" r="4.5" transform="rotate(0,131.5,41.5)"/><circle cx="131.5" cy="50.5" r="4.5" transform="rotate(0,131.5,50.5)"/><circle cx="131.5" cy="59.5" r="4.5" transform="rotate(0,131.5,59.5)"/><circle cx="131.5" cy="77.5" r="4.5" transform="rotate(0,131.5,77.5)"/><circle cx="131.5" cy="86.5" r="4.5" transform="rotate(0,131.5,86.5)"/><circle cx="131.5" cy="95.5" r="4.5" transform="rotate(0,131.5,95.5)"/><circle cx="131.5" cy="104.5" r="4.5" transform="rotate(0,131.5,104.5)"/><circle cx="131.5" cy="113.5" r="4.5" transform="rotate(0,131.5,113.5)"/><circle cx="131.5" cy="131.5" r="4.5" transform="rotate(0,131.5,131.5)"/><circle cx="131.5" cy="149.5" r="4.5" transform="rotate(0,131.5,149.5)"/><circle cx="131.5" cy="158.5" r="4.5" transform="rotate(0,131.5,158.5)"/><circle cx="131.5" cy="176.5" r="4.5" transform="rotate(0,131.5,176.5)"/><circle cx="131.5" cy="185.5" r="4.5" transform="rotate(0,131.5,185.5)"/><circle cx="131.5" cy="203.5" r="4.5" transform="rotate(0,131.5,203.5)"/><circle cx="131.5" cy="248.5" r="4.5" transform="rotate(0,131.5,248.5)"/><circle cx="131.5" cy="257.5" r="4.5" transform="rotate(0,131.5,257.5)"/><circle cx="140.5" cy="23.5" r="4.5" transform="rotate(0,140.5,23.5)"/><circle cx="140.5" cy="41.5" r="4.5" transform="rotate(0,140.5,41.5)"/><circle cx="140.5" cy="122.5" r="4.5" transform="rotate(0,140.5,122.5)"/><circle cx="140.5" cy="131.5" r="4.5" transform="rotate(0,140.5,131.5)"/><circle cx="140.5" cy="149.5" r="4.5" transform="rotate(0,140.5,149.5)"/><circle cx="140.5" cy="158.5" r="4.5" transform="rotate(0,140.5,158.5)"/><circle cx="140.5" cy="167.5" r="4.5" transform="rotate(0,140.5,167.5)"/><circle cx="140.5" cy="176.5" r="4.5" transform="rotate(0,140.5,176.5)"/><circle cx="140.5" cy="185.5" r="4.5" transform="rotate(0,140.5,185.5)"/><circle cx="140.5" cy="212.5" r="4.5" transform="rotate(0,140.5,212.5)"/><circle cx="140.5" cy="221.5" r="4.5" transform="rotate(0,140.5,221.5)"/><circle cx="140.5" cy="230.5" r="4.5" transform="rotate(0,140.5,230.5)"/><circle cx="149.5" cy="23.5" r="4.5" transform="rotate(0,149.5,23.5)"/><circle cx="149.5" cy="41.5" r="4.5" transform="rotate(0,149.5,41.5)"/><circle cx="149.5" cy="59.5" r="4.5" transform="rotate(0,149.5,59.5)"/><circle cx="149.5" cy="77.5" r="4.5" transform="rotate(0,149.5,77.5)"/><circle cx="149.5" cy="95.5" r="4.5" transform="rotate(0,149.5,95.5)"/><circle cx="149.5" cy="122.5" r="4.5" transform="rotate(0,149.5,122.5)"/><circle cx="149.5" cy="140.5" r="4.5" transform="rotate(0,149.5,140.5)"/><circle cx="149.5" cy="176.5" r="4.5" transform="rotate(0,149.5,176.5)"/><circle cx="149.5" cy="194.5" r="4.5" transform="rotate(0,149.5,194.5)"/><circle cx="149.5" cy="203.5" r="4.5" transform="rotate(0,149.5,203.5)"/><circle cx="149.5" cy="221.5" r="4.5" transform="rotate(0,149.5,221.5)"/><circle cx="149.5" cy="248.5" r="4.5" transform="rotate(0,149.5,248.5)"/><circle cx="149.5" cy="257.5" r="4.5" transform="rotate(0,149.5,257.5)"/><circle cx="149.5" cy="266.5" r="4.5" transform="rotate(0,149.5,266.5)"/><circle cx="149.5" cy="275.5" r="4.5" transform="rotate(0,149.5,275.5)"/><circle cx="158.5" cy="32.5" r="4.5" transform="rotate(0,158.5,32.5)"/><circle cx="158.5" cy="41.5" r="4.5" transform="rotate(0,158.5,41.5)"/><circle cx="158.5" cy="86.5" r="4.5" transform="rotate(0,158.5,86.5)"/><circle cx="158.5" cy="104.5" r="4.5" transform="rotate(0,158.5,104.5)"/><circle cx="158.5" cy="122.5" r="4.5" transform="rotate(0,158.5,122.5)"/><circle cx="158.5" cy="149.5" r="4.5" transform="rotate(0,158.5,149.5)"/><circle cx="158.5" cy="158.5" r="4.5" transform="rotate(0,158.5,158.5)"/><circle cx="158.5" cy="167.5" r="4.5" transform="rotate(0,158.5,167.5)"/><circle cx="158.5" cy="185.5" r="4.5" transform="rotate(0,158.5,185.5)"/><circle cx="158.5" cy="194.5" r="4.5" transform="rotate(0,158.5,194.5)"/><circle cx="158.5" cy="203.5" r="4.5" transform="rotate(0,158.5,203.5)"/><circle cx="158.5" cy="212.5" r="4.5" transform="rotate(0,158.5,212.5)"/><circle cx="158.5" cy="230.5" r="4.5" transform="rotate(0,158.5,230.5)"/><circle cx="158.5" cy="239.5" r="4.5" transform="rotate(0,158.5,239.5)"/><circle cx="158.5" cy="248.5" r="4.5" transform="rotate(0,158.5,248.5)"/><circle cx="167.5" cy="32.5" r="4.5" transform="rotate(0,167.5,32.5)"/><circle cx="167.5" cy="41.5" r="4.5" transform="rotate(0,167.5,41.5)"/><circle cx="167.5" cy="68.5" r="4.5" transform="rotate(0,167.5,68.5)"/><circle cx="167.5" cy="77.5" r="4.5" transform="rotate(0,167.5,77.5)"/><circle cx="167.5" cy="86.5" r="4.5" transform="rotate(0,167.5,86.5)"/><circle cx="167.5" cy="113.5" r="4.5" transform="rotate(0,167.5,113.5)"/><circle cx="167.5" cy="131.5" r="4.5" transform="rotate(0,167.5,131.5)"/><circle cx="167.5" cy="149.5" r="4.5" transform="rotate(0,167.5,149.5)"/><circle cx="167.5" cy="167.5" r="4.5" transform="rotate(0,167.5,167.5)"/><circle cx="167.5" cy="212.5" r="4.5" transform="rotate(0,167.5,212.5)"/><circle cx="167.5" cy="239.5" r="4.5" transform="rotate(0,167.5,239.5)"/><circle cx="167.5" cy="248.5" r="4.5" transform="rotate(0,167.5,248.5)"/><circle cx="167.5" cy="257.5" r="4.5" transform="rotate(0,167.5,257.5)"/><circle cx="167.5" cy="275.5" r="4.5" transform="rotate(0,167.5,275.5)"/><circle cx="176.5" cy="86.5" r="4.5" transform="rotate(0,176.5,86.5)"/><circle cx="176.5" cy="149.5" r="4.5" transform="rotate(0,176.5,149.5)"/><circle cx="176.5" cy="158.5" r="4.5" transform="rotate(0,176.5,158.5)"/><circle cx="176.5" cy="185.5" r="4.5" transform="rotate(0,176.5,185.5)"/><circle cx="176.5" cy="194.5" r="4.5" transform="rotate(0,176.5,194.5)"/><circle cx="176.5" cy="203.5" r="4.5" transform="rotate(0,176.5,203.5)"/><circle cx="176.5" cy="230.5" r="4.5" transform="rotate(0,176.5,230.5)"/><circle cx="176.5" cy="248.5" r="4.5" transform="rotate(0,176.5,248.5)"/><circle cx="176.5" cy="275.5" r="4.5" transform="rotate(0,176.5,275.5)"/><circle cx="185.5" cy="23.5" r="4.5" transform="rotate(0,185.5,23.5)"/><circle cx="185.5" cy="68.5" r="4.5" transform="rotate(0,185.5,68.5)"/><circle cx="185.5" cy="77.5" r="4.5" transform="rotate(0,185.5,77.5)"/><circle cx="185.5" cy="86.5" r="4.5" transform="rotate(0,185.5,86.5)"/><circle cx="185.5" cy="104.5" r="4.5" transform="rotate(0,185.5,104.5)"/><circle cx="185.5" cy="113.5" r="4.5" transform="rotate(0,185.5,113.5)"/><circle cx="185.5" cy="140.5" r="4.5" transform="rotate(0,185.5,140.5)"/><circle cx="185.5" cy="149.5" r="4.5" transform="rotate(0,185.5,149.5)"/><circle cx="185.5" cy="158.5" r="4.5" transform="rotate(0,185.5,158.5)"/><circle cx="185.5" cy="176.5" r="4.5" transform="rotate(0,185.5,176.5)"/><circle cx="185.5" cy="185.5" r="4.5" transform="rotate(0,185.5,185.5)"/><circle cx="185.5" cy="212.5" r="4.5" transform="rotate(0,185.5,212.5)"/><circle cx="185.5" cy="221.5" r="4.5" transform="rotate(0,185.5,221.5)"/><circle cx="185.5" cy="230.5" r="4.5" transform="rotate(0,185.5,230.5)"/><circle cx="185.5" cy="248.5" r="4.5" transform="rotate(0,185.5,248.5)"/><circle cx="185.5" cy="257.5" r="4.5" transform="rotate(0,185.5,257.5)"/><circle cx="194.5" cy="41.5" r="4.5" transform="rotate(0,194.5,41.5)"/><circle cx="194.5" cy="50.5" r="4.5" transform="rotate(0,194.5,50.5)"/><circle cx="194.5" cy="68.5" r="4.5" transform="rotate(0,194.5,68.5)"/><circle cx="194.5" cy="95.5" r="4.5" transform="rotate(0,194.5,95.5)"/><circle cx="194.5" cy="113.5" r="4.5" transform="rotate(0,194.5,113.5)"/><circle cx="194.5" cy="122.5" r="4.5" transform="rotate(0,194.5,122.5)"/><circle cx="194.5" cy="140.5" r="4.5" transform="rotate(0,194.5,140.5)"/><circle cx="194.5" cy="149.5" r="4.5" transform="rotate(0,194.5,149.5)"/><circle cx="194.5" cy="158.5" r="4.5" transform="rotate(0,194.5,158.5)"/><circle cx="194.5" cy="176.5" r="4.5" transform="rotate(0,194.5,176.5)"/><circle cx="194.5" cy="185.5" r="4.5" transform="rotate(0,194.5,185.5)"/><circle cx="194.5" cy="194.5" r="4.5" transform="rotate(0,194.5,194.5)"/><circle cx="194.5" cy="203.5" r="4.5" transform="rotate(0,194.5,203.5)"/><circle cx="194.5" cy="212.5" r="4.5" transform="rotate(0,194.5,212.5)"/><circle cx="194.5" cy="230.5" r="4.5" transform="rotate(0,194.5,230.5)"/><circle cx="194.5" cy="257.5" r="4.5" transform="rotate(0,194.5,257.5)"/><circle cx="194.5" cy="266.5" r="4.5" transform="rotate(0,194.5,266.5)"/><circle cx="194.5" cy="275.5" r="4.5" transform="rotate(0,194.5,275.5)"/><circle cx="203.5" cy="32.5" r="4.5" transform="rotate(0,203.5,32.5)"/><circle cx="203.5" cy="59.5" r="4.5" transform="rotate(0,203.5,59.5)"/><circle cx="203.5" cy="77.5" r="4.5" transform="rotate(0,203.5,77.5)"/><circle cx="203.5" cy="86.5" r="4.5" transform="rotate(0,203.5,86.5)"/><circle cx="203.5" cy="104.5" r="4.5" transform="rotate(0,203.5,104.5)"/><circle cx="203.5" cy="140.5" r="4.5" transform="rotate(0,203.5,140.5)"/><circle cx="203.5" cy="149.5" r="4.5" transform="rotate(0,203.5,149.5)"/><circle cx="203.5" cy="176.5" r="4.5" transform="rotate(0,203.5,176.5)"/><circle cx="203.5" cy="203.5" r="4.5" transform="rotate(0,203.5,203.5)"/><circle cx="203.5" cy="212.5" r="4.5" transform="rotate(0,203.5,212.5)"/><circle cx="203.5" cy="221.5" r="4.5" transform="rotate(0,203.5,221.5)"/><circle cx="203.5" cy="230.5" r="4.5" transform="rotate(0,203.5,230.5)"/><circle cx="203.5" cy="239.5" r="4.5" transform="rotate(0,203.5,239.5)"/><circle cx="203.5" cy="257.5" r="4.5" transform="rotate(0,203.5,257.5)"/><circle cx="203.5" cy="266.5" r="4.5" transform="rotate(0,203.5,266.5)"/><circle cx="203.5" cy="275.5" r="4.5" transform="rotate(0,203.5,275.5)"/><circle cx="212.5" cy="95.5" r="4.5" transform="rotate(0,212.5,95.5)"/><circle cx="212.5" cy="167.5" r="4.5" transform="rotate(0,212.5,167.5)"/><circle cx="212.5" cy="176.5" r="4.5" transform="rotate(0,212.5,176.5)"/><circle cx="212.5" cy="194.5" r="4.5" transform="rotate(0,212.5,194.5)"/><circle cx="212.5" cy="203.5" r="4.5" transform="rotate(0,212.5,203.5)"/><circle cx="212.5" cy="239.5" r="4.5" transform="rotate(0,212.5,239.5)"/><circle cx="212.5" cy="257.5" r="4.5" transform="rotate(0,212.5,257.5)"/><circle cx="221.5" cy="104.5" r="4.5" transform="rotate(0,221.5,104.5)"/><circle cx="221.5" cy="113.5" r="4.5" transform="rotate(0,221.5,113.5)"/><circle cx="221.5" cy="149.5" r="4.5" transform="rotate(0,221.5,149.5)"/><circle cx="221.5" cy="194.5" r="4.5" transform="rotate(0,221.5,194.5)"/><circle cx="221.5" cy="203.5" r="4.5" transform="rotate(0,221.5,203.5)"/><circle cx="221.5" cy="221.5" r="4.5" transform="rotate(0,221.5,221.5)"/><circle cx="221.5" cy="239.5" r="4.5" transform="rotate(0,221.5,239.5)"/><circle cx="221.5" cy="266.5" r="4.5" transform="rotate(0,221.5,266.5)"/><circle cx="230.5" cy="104.5" r="4.5" transform="rotate(0,230.5,104.5)"/><circle cx="230.5" cy="113.5" r="4.5" transform="rotate(0,230.5,113.5)"/><circle cx="230.5" cy="122.5" r="4.5" transform="rotate(0,230.5,122.5)"/><circle cx="230.5" cy="131.5" r="4.5" transform="rotate(0,230.5,131.5)"/><circle cx="230.5" cy="140.5" r="4.5" transform="rotate(0,230.5,140.5)"/><circle cx="230.5" cy="149.5" r="4.5" transform="rotate(0,230.5,149.5)"/><circle cx="230.5" cy="185.5" r="4.5" transform="rotate(0,230.5,185.5)"/><circle cx="230.5" cy="194.5" r="4.5" transform="rotate(0,230.5,194.5)"/><circle cx="230.5" cy="203.5" r="4.5" transform="rotate(0,230.5,203.5)"/><circle cx="230.5" cy="239.5" r="4.5" transform="rotate(0,230.5,239.5)"/><circle cx="230.5" cy="275.5" r="4.5" transform="rotate(0,230.5,275.5)"/><circle cx="239.5" cy="104.5" r="4.5" transform="rotate(0,239.5,104.5)"/><circle cx="239.5" cy="113.5" r="4.5" transform="rotate(0,239.5,113.5)"/><circle cx="239.5" cy="122.5" r="4.5" transform="rotate(0,239.5,122.5)"/><circle cx="239.5" cy="158.5" r="4.5" transform="rotate(0,239.5,158.5)"/><circle cx="239.5" cy="167.5" r="4.5" transform="rotate(0,239.5,167.5)"/><circle cx="239.5" cy="203.5" r="4.5" transform="rotate(0,239.5,203.5)"/><circle cx="239.5" cy="212.5" r="4.5" transform="rotate(0,239.5,212.5)"/><circle cx="239.5" cy="221.5" r="4.5" transform="rotate(0,239.5,221.5)"/><circle cx="239.5" cy="230.5" r="4.5" transform="rotate(0,239.5,230.5)"/><circle cx="239.5" cy="239.5" r="4.5" transform="rotate(0,239.5,239.5)"/><circle cx="239.5" cy="248.5" r="4.5" transform="rotate(0,239.5,248.5)"/><circle cx="239.5" cy="257.5" r="4.5" transform="rotate(0,239.5,257.5)"/><circle cx="248.5" cy="95.5" r="4.5" transform="rotate(0,248.5,95.5)"/><circle cx="248.5" cy="104.5" r="4.5" transform="rotate(0,248.5,104.5)"/><circle cx="248.5" cy="113.5" r="4.5" transform="rotate(0,248.5,113.5)"/><circle cx="248.5" cy="122.5" r="4.5" transform="rotate(0,248.5,122.5)"/><circle cx="248.5" cy="140.5" r="4.5" transform="rotate(0,248.5,140.5)"/><circle cx="248.5" cy="158.5" r="4.5" transform="rotate(0,248.5,158.5)"/><circle cx="248.5" cy="167.5" r="4.5" transform="rotate(0,248.5,167.5)"/><circle cx="248.5" cy="203.5" r="4.5" transform="rotate(0,248.5,203.5)"/><circle cx="248.5" cy="239.5" r="4.5" transform="rotate(0,248.5,239.5)"/><circle cx="248.5" cy="248.5" r="4.5" transform="rotate(0,248.5,248.5)"/><circle cx="248.5" cy="257.5" r="4.5" transform="rotate(0,248.5,257.5)"/><circle cx="248.5" cy="275.5" r="4.5" transform="rotate(0,248.5,275.5)"/><circle cx="257.5" cy="95.5" r="4.5" transform="rotate(0,257.5,95.5)"/><circle cx="257.5" cy="113.5" r="4.5" transform="rotate(0,257.5,113.5)"/><circle cx="257.5" cy="131.5" r="4.5" transform="rotate(0,257.5,131.5)"/><circle cx="257.5" cy="149.5" r="4.5" transform="rotate(0,257.5,149.5)"/><circle cx="257.5" cy="167.5" r="4.5" transform="rotate(0,257.5,167.5)"/><circle cx="257.5" cy="212.5" r="4.5" transform="rotate(0,257.5,212.5)"/><circle cx="257.5" cy="230.5" r="4.5" transform="rotate(0,257.5,230.5)"/><circle cx="257.5" cy="248.5" r="4.5" transform="rotate(0,257.5,248.5)"/><circle cx="257.5" cy="275.5" r="4.5" transform="rotate(0,257.5,275.5)"/><circle cx="266.5" cy="95.5" r="4.5" transform="rotate(0,266.5,95.5)"/><circle cx="266.5" cy="113.5" r="4.5" transform="rotate(0,266.5,113.5)"/><circle cx="266.5" cy="131.5" r="4.5" transform="rotate(0,266.5,131.5)"/><circle cx="266.5" cy="140.5" r="4.5" transform="rotate(0,266.5,140.5)"/><circle cx="266.5" cy="185.5" r="4.5" transform="rotate(0,266.5,185.5)"/><circle cx="266.5" cy="194.5" r="4.5" transform="rotate(0,266.5,194.5)"/><circle cx="266.5" cy="212.5" r="4.5" transform="rotate(0,266.5,212.5)"/><circle cx="266.5" cy="221.5" r="4.5" transform="rotate(0,266.5,221.5)"/><circle cx="266.5" cy="230.5" r="4.5" transform="rotate(0,266.5,230.5)"/><circle cx="266.5" cy="239.5" r="4.5" transform="rotate(0,266.5,239.5)"/><circle cx="266.5" cy="248.5" r="4.5" transform="rotate(0,266.5,248.5)"/><circle cx="266.5" cy="266.5" r="4.5" transform="rotate(0,266.5,266.5)"/><circle cx="275.5" cy="95.5" r="4.5" transform="rotate(0,275.5,95.5)"/><circle cx="275.5" cy="104.5" r="4.5" transform="rotate(0,275.5,104.5)"/><circle cx="275.5" cy="113.5" r="4.5" transform="rotate(0,275.5,113.5)"/><circle cx="275.5" cy="122.5" r="4.5" transform="rotate(0,275.5,122.5)"/><circle cx="275.5" cy="158.5" r="4.5" transform="rotate(0,275.5,158.5)"/><circle cx="275.5" cy="167.5" r="4.5" transform="rotate(0,275.5,167.5)"/><circle cx="275.5" cy="194.5" r="4.5" transform="rotate(0,275.5,194.5)"/><circle cx="275.5" cy="203.5" r="4.5" transform="rotate(0,275.5,203.5)"/><circle cx="275.5" cy="212.5" r="4.5" transform="rotate(0,275.5,212.5)"/><circle cx="275.5" cy="221.5" r="4.5" transform="rotate(0,275.5,221.5)"/><circle cx="275.5" cy="266.5" r="4.5" transform="rotate(0,275.5,266.5)"/></clipPath><clipPath id="clip-path-corners-square-color-0-0"><path clip-rule="evenodd" d="M 19 41.5v 18a 22.5 22.5, 0, 0, 0, 22.5 22.5h 18a 22.5 22.5, 0, 0, 0, 22.5 -22.5v -18a 22.5 22.5, 0, 0, 0, -22.5 -22.5h -18a 22.5 22.5, 0, 0, 0, -22.5 22.5M 41.5 28h 18a 13.5 13.5, 0, 0, 1, 13.5 13.5v 18a 13.5 13.5, 0, 0, 1, -13.5 13.5h -18a 13.5 13.5, 0, 0, 1, -13.5 -13.5v -18a 13.5 13.5, 0, 0, 1, 13.5 -13.5" transform="rotate(0,50.5,50.5)"/></clipPath><clipPath id="clip-path-corners-dot-color-0-0"><circle cx="50.5" cy="50.5" r="13.5" transform="rotate(0,50.5,50.5)"/></clipPath><clipPath id="clip-path-corners-square-color-1-0"><path clip-rule="evenodd" d="M 217 41.5v 18a 22.5 22.5, 0, 0, 0, 22.5 22.5h 18a 22.5 22.5, 0, 0, 0, 22.5 -22.5v -18a 22.5 22.5, 0, 0, 0, -22.5 -22.5h -18a 22.5 22.5, 0, 0, 0, -22.5 22.5M 239.5 28h 18a 13.5 13.5, 0, 0, 1, 13.5 13.5v 18a 13.5 13.5, 0, 0, 1, -13.5 13.5h -18a 13.5 13.5, 0, 0, 1, -13.5 -13.5v -18a 13.5 13.5, 0, 0, 1, 13.5 -13.5" transform="rotate(90,248.5,50.5)"/></clipPath><clipPath id="clip-path-corners-dot-color-1-0"><circle cx="248.5" cy="50.5" r="13.5" transform="rotate(90,248.5,50.5)"/></clipPath><clipPath id="clip-path-corners-square-color-0-1"><path clip-rule="evenodd" d="M 19 239.5v 18a 22.5 22.5, 0, 0, 0, 22.5 22.5h 18a 22.5 22.5, 0, 0, 0, 22.5 -22.5v -18a 22.5 22.5, 0, 0, 0, -22.5 -22.5h -18a 22.5 22.5, 0, 0, 0, -22.5 22.5M 41.5 226h 18a 13.5 13.5, 0, 0, 1, 13.5 13.5v 18a 13.5 13.5, 0, 0, 1, -13.5 13.5h -18a 13.5 13.5, 0, 0, 1, -13.5 -13.5v -18a 13.5 13.5, 0, 0, 1, 13.5 -13.5" transform="rotate(-90,50.5,248.5)"/></clipPath><clipPath id="clip-path-corners-dot-color-0-1"><circle cx="50.5" cy="248.5" r="13.5" transform="rotate(-90,50.5,248.5)"/></clipPath></defs><rect x="0" y="0" height="300" width="300" clip-path="url('#clip-path-background-color')" fill="#ffffff"/><rect x="0" y="0" height="300" width="300" clip-path="url('#clip-path-dot-color')" fill="#222222"/><rect x="19" y="19" height="63" width="63" clip-path="url('#clip-path-corners-square-color-0-0')" fill="#222222"/><rect x="37" y="37" height="27" width="27" clip-path="url('#clip-path-corners-dot-color-0-0')" fill="#222222"/><rect x="217" y="19" height="63" width="63" clip-path="url('#clip-path-corners-square-color-1-0')" fill="#222222"/><rect x="235" y="37" height="27" width="27" clip-path="url('#clip-path-corners-dot-color-1-0')" fill="#222222"/><rect x="19" y="217" height="63" width="63" clip-path="url('#clip-path-corners-square-color-0-1')" fill="#222222"/><rect x="37" y="235" height="27" width="27" clip-path="url('#clip-path-corners-dot-color-0-1')" fill="#222222"/></svg>